<mxfile host="Electron" modified="2023-05-07T15:44:06.703Z" agent="Mozilla/5.0 (Windows NT 10.0; Win64; x64) AppleWebKit/537.36 (KHTML, like Gecko) draw.io/21.2.8 Chrome/112.0.5615.165 Electron/24.2.0 Safari/537.36" etag="DNiCRhxhwxvd76xT9Pib" version="21.2.8" type="device">
  <diagram id="C5RBs43oDa-KdzZeNtuy" name="Page-1">
    <mxGraphModel dx="707" dy="835" grid="1" gridSize="10" guides="1" tooltips="1" connect="1" arrows="1" fold="1" page="1" pageScale="1" pageWidth="827" pageHeight="1169" math="0" shadow="0">
      <root>
        <mxCell id="WIyWlLk6GJQsqaUBKTNV-0" />
        <mxCell id="WIyWlLk6GJQsqaUBKTNV-1" parent="WIyWlLk6GJQsqaUBKTNV-0" />
        <mxCell id="GmL1GBazqr-ufyHwdosB-1" value="User" style="shape=umlActor;verticalLabelPosition=bottom;verticalAlign=top;html=1;outlineConnect=0;" vertex="1" parent="WIyWlLk6GJQsqaUBKTNV-1">
          <mxGeometry x="60" y="370" width="30" height="60" as="geometry" />
        </mxCell>
        <mxCell id="GmL1GBazqr-ufyHwdosB-2" value=":&lt;u&gt;DirectroyManager&lt;/u&gt;" style="html=1;whiteSpace=wrap;" vertex="1" parent="WIyWlLk6GJQsqaUBKTNV-1">
          <mxGeometry x="210" y="282.5" width="190" height="55" as="geometry" />
        </mxCell>
        <mxCell id="GmL1GBazqr-ufyHwdosB-4" value=":&lt;u style=&quot;border-color: var(--border-color);&quot;&gt;DirectroyManager&lt;/u&gt;" style="html=1;whiteSpace=wrap;" vertex="1" parent="WIyWlLk6GJQsqaUBKTNV-1">
          <mxGeometry x="210" y="490" width="190" height="55" as="geometry" />
        </mxCell>
        <mxCell id="GmL1GBazqr-ufyHwdosB-7" value="" style="endArrow=none;html=1;rounded=0;exitX=0;exitY=0.5;exitDx=0;exitDy=0;" edge="1" parent="WIyWlLk6GJQsqaUBKTNV-1" source="GmL1GBazqr-ufyHwdosB-2" target="GmL1GBazqr-ufyHwdosB-1">
          <mxGeometry width="50" height="50" relative="1" as="geometry">
            <mxPoint x="350" y="450" as="sourcePoint" />
            <mxPoint x="400" y="400" as="targetPoint" />
          </mxGeometry>
        </mxCell>
        <mxCell id="GmL1GBazqr-ufyHwdosB-9" value="" style="endArrow=none;html=1;rounded=0;entryX=0.5;entryY=1;entryDx=0;entryDy=0;exitX=0.5;exitY=0;exitDx=0;exitDy=0;exitPerimeter=0;" edge="1" parent="WIyWlLk6GJQsqaUBKTNV-1" source="GmL1GBazqr-ufyHwdosB-4" target="GmL1GBazqr-ufyHwdosB-2">
          <mxGeometry width="50" height="50" relative="1" as="geometry">
            <mxPoint x="350" y="450" as="sourcePoint" />
            <mxPoint x="400" y="400" as="targetPoint" />
          </mxGeometry>
        </mxCell>
        <mxCell id="GmL1GBazqr-ufyHwdosB-10" value="" style="endArrow=none;html=1;rounded=0;exitX=0;exitY=0.5;exitDx=0;exitDy=0;" edge="1" parent="WIyWlLk6GJQsqaUBKTNV-1" source="GmL1GBazqr-ufyHwdosB-4" target="GmL1GBazqr-ufyHwdosB-1">
          <mxGeometry width="50" height="50" relative="1" as="geometry">
            <mxPoint x="315" y="500" as="sourcePoint" />
            <mxPoint x="100" y="335" as="targetPoint" />
          </mxGeometry>
        </mxCell>
        <mxCell id="GmL1GBazqr-ufyHwdosB-13" value="1. file creation" style="endArrow=classic;html=1;rounded=0;strokeWidth=1;strokeColor=#FF0000;" edge="1" parent="WIyWlLk6GJQsqaUBKTNV-1">
          <mxGeometry width="50" height="50" relative="1" as="geometry">
            <mxPoint x="100" y="360" as="sourcePoint" />
            <mxPoint x="190" y="300" as="targetPoint" />
          </mxGeometry>
        </mxCell>
        <mxCell id="GmL1GBazqr-ufyHwdosB-14" value="2. treeChanged()" style="endArrow=classic;html=1;rounded=0;strokeWidth=1;strokeColor=#FF3333;" edge="1" parent="WIyWlLk6GJQsqaUBKTNV-1">
          <mxGeometry width="50" height="50" relative="1" as="geometry">
            <mxPoint x="230" y="350" as="sourcePoint" />
            <mxPoint x="230" y="480" as="targetPoint" />
          </mxGeometry>
        </mxCell>
        <mxCell id="GmL1GBazqr-ufyHwdosB-16" value="3. fileRequested()" style="endArrow=classic;html=1;rounded=0;strokeWidth=1;strokeColor=#FF3333;" edge="1" parent="WIyWlLk6GJQsqaUBKTNV-1">
          <mxGeometry x="0.5385" width="50" height="50" relative="1" as="geometry">
            <mxPoint x="350" y="480" as="sourcePoint" />
            <mxPoint x="350" y="350" as="targetPoint" />
            <mxPoint as="offset" />
          </mxGeometry>
        </mxCell>
        <mxCell id="GmL1GBazqr-ufyHwdosB-17" value="InputStream" style="endArrow=classic;html=1;rounded=0;strokeWidth=1;strokeColor=#00CC00;" edge="1" parent="WIyWlLk6GJQsqaUBKTNV-1">
          <mxGeometry x="0.2308" width="50" height="50" relative="1" as="geometry">
            <mxPoint x="390" y="350" as="sourcePoint" />
            <mxPoint x="390" y="480" as="targetPoint" />
            <mxPoint as="offset" />
          </mxGeometry>
        </mxCell>
      </root>
    </mxGraphModel>
  </diagram>
</mxfile>
